<?xml version="1.0" encoding="utf-8" standalone="no"?>
<!DOCTYPE svg PUBLIC "-//W3C//DTD SVG 1.1//EN"
  "http://www.w3.org/Graphics/SVG/1.1/DTD/svg11.dtd">
<svg xmlns:xlink="http://www.w3.org/1999/xlink" width="572.4pt" height="457.92pt" viewBox="0 0 572.4 457.92" xmlns="http://www.w3.org/2000/svg" version="1.1">
 <metadata>
  <rdf:RDF xmlns:dc="http://purl.org/dc/elements/1.1/" xmlns:cc="http://creativecommons.org/ns#" xmlns:rdf="http://www.w3.org/1999/02/22-rdf-syntax-ns#">
   <cc:Work>
    <dc:type rdf:resource="http://purl.org/dc/dcmitype/StillImage"/>
    <dc:date>2026-01-26T10:51:26.610040</dc:date>
    <dc:format>image/svg+xml</dc:format>
    <dc:creator>
     <cc:Agent>
      <dc:title>Matplotlib v3.10.8, https://matplotlib.org/</dc:title>
     </cc:Agent>
    </dc:creator>
   </cc:Work>
  </rdf:RDF>
 </metadata>
 <defs>
  <style type="text/css">*{stroke-linejoin: round; stroke-linecap: butt}</style>
 </defs>
 <g id="figure_1">
  <g id="patch_1">
   <path d="M 0 457.92 
L 572.4 457.92 
L 572.4 0 
L 0 0 
z
" style="fill: #ffffff"/>
  </g>
  <g id="axes_1">
   <g id="line2d_1">
    <path d="M 286.2 406.368 
L 286.2 73.728 
" clip-path="url(#p30f10c1b45)" style="fill: none; stroke-dasharray: 5.55,2.4; stroke-dashoffset: 0; stroke: #808080; stroke-opacity: 0.5; stroke-width: 1.5"/>
   </g>
   <g id="text_1">
    <!-- Calculus Formula Sheet -->
    <g transform="translate(127.035 35.9985) scale(0.24 -0.24)">
     <defs>
      <path id="DejaVuSans-Bold-43" d="M 4288 256 
Q 3956 84 3597 -3 
Q 3238 -91 2847 -91 
Q 1681 -91 1000 561 
Q 319 1213 319 2328 
Q 319 3447 1000 4098 
Q 1681 4750 2847 4750 
Q 3238 4750 3597 4662 
Q 3956 4575 4288 4403 
L 4288 3438 
Q 3953 3666 3628 3772 
Q 3303 3878 2944 3878 
Q 2300 3878 1931 3465 
Q 1563 3053 1563 2328 
Q 1563 1606 1931 1193 
Q 2300 781 2944 781 
Q 3303 781 3628 887 
Q 3953 994 4288 1222 
L 4288 256 
z
" transform="scale(0.015625)"/>
      <path id="DejaVuSans-Bold-61" d="M 2106 1575 
Q 1756 1575 1579 1456 
Q 1403 1338 1403 1106 
Q 1403 894 1545 773 
Q 1688 653 1941 653 
Q 2256 653 2472 879 
Q 2688 1106 2688 1447 
L 2688 1575 
L 2106 1575 
z
M 3816 1997 
L 3816 0 
L 2688 0 
L 2688 519 
Q 2463 200 2181 54 
Q 1900 -91 1497 -91 
Q 953 -91 614 226 
Q 275 544 275 1050 
Q 275 1666 698 1953 
Q 1122 2241 2028 2241 
L 2688 2241 
L 2688 2328 
Q 2688 2594 2478 2717 
Q 2269 2841 1825 2841 
Q 1466 2841 1156 2769 
Q 847 2697 581 2553 
L 581 3406 
Q 941 3494 1303 3539 
Q 1666 3584 2028 3584 
Q 2975 3584 3395 3211 
Q 3816 2838 3816 1997 
z
" transform="scale(0.015625)"/>
      <path id="DejaVuSans-Bold-6c" d="M 538 4863 
L 1656 4863 
L 1656 0 
L 538 0 
L 538 4863 
z
" transform="scale(0.015625)"/>
      <path id="DejaVuSans-Bold-63" d="M 3366 3391 
L 3366 2478 
Q 3138 2634 2908 2709 
Q 2678 2784 2431 2784 
Q 1963 2784 1702 2511 
Q 1441 2238 1441 1747 
Q 1441 1256 1702 982 
Q 1963 709 2431 709 
Q 2694 709 2930 787 
Q 3166 866 3366 1019 
L 3366 103 
Q 3103 6 2833 -42 
Q 2563 -91 2291 -91 
Q 1344 -91 809 395 
Q 275 881 275 1747 
Q 275 2613 809 3098 
Q 1344 3584 2291 3584 
Q 2566 3584 2833 3536 
Q 3100 3488 3366 3391 
z
" transform="scale(0.015625)"/>
      <path id="DejaVuSans-Bold-75" d="M 500 1363 
L 500 3500 
L 1625 3500 
L 1625 3150 
Q 1625 2866 1622 2436 
Q 1619 2006 1619 1863 
Q 1619 1441 1641 1255 
Q 1663 1069 1716 984 
Q 1784 875 1895 815 
Q 2006 756 2150 756 
Q 2500 756 2700 1025 
Q 2900 1294 2900 1772 
L 2900 3500 
L 4019 3500 
L 4019 0 
L 2900 0 
L 2900 506 
Q 2647 200 2364 54 
Q 2081 -91 1741 -91 
Q 1134 -91 817 281 
Q 500 653 500 1363 
z
" transform="scale(0.015625)"/>
      <path id="DejaVuSans-Bold-73" d="M 3272 3391 
L 3272 2541 
Q 2913 2691 2578 2766 
Q 2244 2841 1947 2841 
Q 1628 2841 1473 2761 
Q 1319 2681 1319 2516 
Q 1319 2381 1436 2309 
Q 1553 2238 1856 2203 
L 2053 2175 
Q 2913 2066 3209 1816 
Q 3506 1566 3506 1031 
Q 3506 472 3093 190 
Q 2681 -91 1863 -91 
Q 1516 -91 1145 -36 
Q 775 19 384 128 
L 384 978 
Q 719 816 1070 734 
Q 1422 653 1784 653 
Q 2113 653 2278 743 
Q 2444 834 2444 1013 
Q 2444 1163 2330 1236 
Q 2216 1309 1875 1350 
L 1678 1375 
Q 931 1469 631 1722 
Q 331 1975 331 2491 
Q 331 3047 712 3315 
Q 1094 3584 1881 3584 
Q 2191 3584 2531 3537 
Q 2872 3491 3272 3391 
z
" transform="scale(0.015625)"/>
      <path id="DejaVuSans-Bold-20" transform="scale(0.015625)"/>
      <path id="DejaVuSans-Bold-46" d="M 588 4666 
L 3834 4666 
L 3834 3756 
L 1791 3756 
L 1791 2888 
L 3713 2888 
L 3713 1978 
L 1791 1978 
L 1791 0 
L 588 0 
L 588 4666 
z
" transform="scale(0.015625)"/>
      <path id="DejaVuSans-Bold-6f" d="M 2203 2784 
Q 1831 2784 1636 2517 
Q 1441 2250 1441 1747 
Q 1441 1244 1636 976 
Q 1831 709 2203 709 
Q 2569 709 2762 976 
Q 2956 1244 2956 1747 
Q 2956 2250 2762 2517 
Q 2569 2784 2203 2784 
z
M 2203 3584 
Q 3106 3584 3614 3096 
Q 4122 2609 4122 1747 
Q 4122 884 3614 396 
Q 3106 -91 2203 -91 
Q 1297 -91 786 396 
Q 275 884 275 1747 
Q 275 2609 786 3096 
Q 1297 3584 2203 3584 
z
" transform="scale(0.015625)"/>
      <path id="DejaVuSans-Bold-72" d="M 3138 2547 
Q 2991 2616 2845 2648 
Q 2700 2681 2553 2681 
Q 2122 2681 1889 2404 
Q 1656 2128 1656 1613 
L 1656 0 
L 538 0 
L 538 3500 
L 1656 3500 
L 1656 2925 
Q 1872 3269 2151 3426 
Q 2431 3584 2822 3584 
Q 2878 3584 2943 3579 
Q 3009 3575 3134 3559 
L 3138 2547 
z
" transform="scale(0.015625)"/>
      <path id="DejaVuSans-Bold-6d" d="M 3781 2919 
Q 3994 3244 4286 3414 
Q 4578 3584 4928 3584 
Q 5531 3584 5847 3212 
Q 6163 2841 6163 2131 
L 6163 0 
L 5038 0 
L 5038 1825 
Q 5041 1866 5042 1909 
Q 5044 1953 5044 2034 
Q 5044 2406 4934 2573 
Q 4825 2741 4581 2741 
Q 4263 2741 4089 2478 
Q 3916 2216 3909 1719 
L 3909 0 
L 2784 0 
L 2784 1825 
Q 2784 2406 2684 2573 
Q 2584 2741 2328 2741 
Q 2006 2741 1831 2477 
Q 1656 2213 1656 1722 
L 1656 0 
L 531 0 
L 531 3500 
L 1656 3500 
L 1656 2988 
Q 1863 3284 2130 3434 
Q 2397 3584 2719 3584 
Q 3081 3584 3359 3409 
Q 3638 3234 3781 2919 
z
" transform="scale(0.015625)"/>
      <path id="DejaVuSans-Bold-53" d="M 3834 4519 
L 3834 3531 
Q 3450 3703 3084 3790 
Q 2719 3878 2394 3878 
Q 1963 3878 1756 3759 
Q 1550 3641 1550 3391 
Q 1550 3203 1689 3098 
Q 1828 2994 2194 2919 
L 2706 2816 
Q 3484 2659 3812 2340 
Q 4141 2022 4141 1434 
Q 4141 663 3683 286 
Q 3225 -91 2284 -91 
Q 1841 -91 1394 -6 
Q 947 78 500 244 
L 500 1259 
Q 947 1022 1364 901 
Q 1781 781 2169 781 
Q 2563 781 2772 912 
Q 2981 1044 2981 1288 
Q 2981 1506 2839 1625 
Q 2697 1744 2272 1838 
L 1806 1941 
Q 1106 2091 782 2419 
Q 459 2747 459 3303 
Q 459 4000 909 4375 
Q 1359 4750 2203 4750 
Q 2588 4750 2994 4692 
Q 3400 4634 3834 4519 
z
" transform="scale(0.015625)"/>
      <path id="DejaVuSans-Bold-68" d="M 4056 2131 
L 4056 0 
L 2931 0 
L 2931 347 
L 2931 1625 
Q 2931 2084 2911 2256 
Q 2891 2428 2841 2509 
Q 2775 2619 2662 2680 
Q 2550 2741 2406 2741 
Q 2056 2741 1856 2470 
Q 1656 2200 1656 1722 
L 1656 0 
L 538 0 
L 538 4863 
L 1656 4863 
L 1656 2988 
Q 1909 3294 2193 3439 
Q 2478 3584 2822 3584 
Q 3428 3584 3742 3212 
Q 4056 2841 4056 2131 
z
" transform="scale(0.015625)"/>
      <path id="DejaVuSans-Bold-65" d="M 4031 1759 
L 4031 1441 
L 1416 1441 
Q 1456 1047 1700 850 
Q 1944 653 2381 653 
Q 2734 653 3104 758 
Q 3475 863 3866 1075 
L 3866 213 
Q 3469 63 3072 -14 
Q 2675 -91 2278 -91 
Q 1328 -91 801 392 
Q 275 875 275 1747 
Q 275 2603 792 3093 
Q 1309 3584 2216 3584 
Q 3041 3584 3536 3087 
Q 4031 2591 4031 1759 
z
M 2881 2131 
Q 2881 2450 2695 2645 
Q 2509 2841 2209 2841 
Q 1884 2841 1681 2658 
Q 1478 2475 1428 2131 
L 2881 2131 
z
" transform="scale(0.015625)"/>
      <path id="DejaVuSans-Bold-74" d="M 1759 4494 
L 1759 3500 
L 2913 3500 
L 2913 2700 
L 1759 2700 
L 1759 1216 
Q 1759 972 1856 886 
Q 1953 800 2241 800 
L 2816 800 
L 2816 0 
L 1856 0 
Q 1194 0 917 276 
Q 641 553 641 1216 
L 641 2700 
L 84 2700 
L 84 3500 
L 641 3500 
L 641 4494 
L 1759 4494 
z
" transform="scale(0.015625)"/>
     </defs>
     <use xlink:href="#DejaVuSans-Bold-43"/>
     <use xlink:href="#DejaVuSans-Bold-61" transform="translate(73.388672 0)"/>
     <use xlink:href="#DejaVuSans-Bold-6c" transform="translate(140.869141 0)"/>
     <use xlink:href="#DejaVuSans-Bold-63" transform="translate(175.146484 0)"/>
     <use xlink:href="#DejaVuSans-Bold-75" transform="translate(234.423828 0)"/>
     <use xlink:href="#DejaVuSans-Bold-6c" transform="translate(305.615234 0)"/>
     <use xlink:href="#DejaVuSans-Bold-75" transform="translate(339.892578 0)"/>
     <use xlink:href="#DejaVuSans-Bold-73" transform="translate(411.083984 0)"/>
     <use xlink:href="#DejaVuSans-Bold-20" transform="translate(470.605469 0)"/>
     <use xlink:href="#DejaVuSans-Bold-46" transform="translate(505.419922 0)"/>
     <use xlink:href="#DejaVuSans-Bold-6f" transform="translate(569.730469 0)"/>
     <use xlink:href="#DejaVuSans-Bold-72" transform="translate(638.431641 0)"/>
     <use xlink:href="#DejaVuSans-Bold-6d" transform="translate(687.748047 0)"/>
     <use xlink:href="#DejaVuSans-Bold-75" transform="translate(791.947266 0)"/>
     <use xlink:href="#DejaVuSans-Bold-6c" transform="translate(863.138672 0)"/>
     <use xlink:href="#DejaVuSans-Bold-61" transform="translate(897.416016 0)"/>
     <use xlink:href="#DejaVuSans-Bold-20" transform="translate(964.896484 0)"/>
     <use xlink:href="#DejaVuSans-Bold-53" transform="translate(999.710938 0)"/>
     <use xlink:href="#DejaVuSans-Bold-68" transform="translate(1071.732422 0)"/>
     <use xlink:href="#DejaVuSans-Bold-65" transform="translate(1142.923828 0)"/>
     <use xlink:href="#DejaVuSans-Bold-65" transform="translate(1210.746094 0)"/>
     <use xlink:href="#DejaVuSans-Bold-74" transform="translate(1278.568359 0)"/>
    </g>
   </g>
   <g id="text_2">
    <!-- Differentiation -->
    <g style="fill: #2c3e50" transform="translate(71.821406 60.4224) scale(0.18 -0.18)">
     <defs>
      <path id="DejaVuSans-Bold-44" d="M 1791 3756 
L 1791 909 
L 2222 909 
Q 2959 909 3348 1275 
Q 3738 1641 3738 2338 
Q 3738 3031 3350 3393 
Q 2963 3756 2222 3756 
L 1791 3756 
z
M 588 4666 
L 1856 4666 
Q 2919 4666 3439 4514 
Q 3959 4363 4331 4000 
Q 4659 3684 4818 3271 
Q 4978 2859 4978 2338 
Q 4978 1809 4818 1395 
Q 4659 981 4331 666 
Q 3956 303 3431 151 
Q 2906 0 1856 0 
L 588 0 
L 588 4666 
z
" transform="scale(0.015625)"/>
      <path id="DejaVuSans-Bold-69" d="M 538 3500 
L 1656 3500 
L 1656 0 
L 538 0 
L 538 3500 
z
M 538 4863 
L 1656 4863 
L 1656 3950 
L 538 3950 
L 538 4863 
z
" transform="scale(0.015625)"/>
      <path id="DejaVuSans-Bold-66" d="M 2841 4863 
L 2841 4128 
L 2222 4128 
Q 1984 4128 1890 4042 
Q 1797 3956 1797 3744 
L 1797 3500 
L 2753 3500 
L 2753 2700 
L 1797 2700 
L 1797 0 
L 678 0 
L 678 2700 
L 122 2700 
L 122 3500 
L 678 3500 
L 678 3744 
Q 678 4316 997 4589 
Q 1316 4863 1984 4863 
L 2841 4863 
z
" transform="scale(0.015625)"/>
      <path id="DejaVuSans-Bold-6e" d="M 4056 2131 
L 4056 0 
L 2931 0 
L 2931 347 
L 2931 1631 
Q 2931 2084 2911 2256 
Q 2891 2428 2841 2509 
Q 2775 2619 2662 2680 
Q 2550 2741 2406 2741 
Q 2056 2741 1856 2470 
Q 1656 2200 1656 1722 
L 1656 0 
L 538 0 
L 538 3500 
L 1656 3500 
L 1656 2988 
Q 1909 3294 2193 3439 
Q 2478 3584 2822 3584 
Q 3428 3584 3742 3212 
Q 4056 2841 4056 2131 
z
" transform="scale(0.015625)"/>
     </defs>
     <use xlink:href="#DejaVuSans-Bold-44"/>
     <use xlink:href="#DejaVuSans-Bold-69" transform="translate(83.007812 0)"/>
     <use xlink:href="#DejaVuSans-Bold-66" transform="translate(117.285156 0)"/>
     <use xlink:href="#DejaVuSans-Bold-66" transform="translate(160.791016 0)"/>
     <use xlink:href="#DejaVuSans-Bold-65" transform="translate(204.296875 0)"/>
     <use xlink:href="#DejaVuSans-Bold-72" transform="translate(272.119141 0)"/>
     <use xlink:href="#DejaVuSans-Bold-65" transform="translate(321.435547 0)"/>
     <use xlink:href="#DejaVuSans-Bold-6e" transform="translate(389.257812 0)"/>
     <use xlink:href="#DejaVuSans-Bold-74" transform="translate(460.449219 0)"/>
     <use xlink:href="#DejaVuSans-Bold-69" transform="translate(508.251953 0)"/>
     <use xlink:href="#DejaVuSans-Bold-61" transform="translate(542.529297 0)"/>
     <use xlink:href="#DejaVuSans-Bold-74" transform="translate(610.009766 0)"/>
     <use xlink:href="#DejaVuSans-Bold-69" transform="translate(657.8125 0)"/>
     <use xlink:href="#DejaVuSans-Bold-6f" transform="translate(692.089844 0)"/>
     <use xlink:href="#DejaVuSans-Bold-6e" transform="translate(760.791016 0)"/>
    </g>
   </g>
   <g id="text_3">
    <!-- Integration -->
    <g style="fill: #e67e22" transform="translate(368.607656 60.4224) scale(0.18 -0.18)">
     <defs>
      <path id="DejaVuSans-Bold-49" d="M 588 4666 
L 1791 4666 
L 1791 0 
L 588 0 
L 588 4666 
z
" transform="scale(0.015625)"/>
      <path id="DejaVuSans-Bold-67" d="M 2919 594 
Q 2688 288 2409 144 
Q 2131 0 1766 0 
Q 1125 0 706 504 
Q 288 1009 288 1791 
Q 288 2575 706 3076 
Q 1125 3578 1766 3578 
Q 2131 3578 2409 3434 
Q 2688 3291 2919 2981 
L 2919 3500 
L 4044 3500 
L 4044 353 
Q 4044 -491 3511 -936 
Q 2978 -1381 1966 -1381 
Q 1638 -1381 1331 -1331 
Q 1025 -1281 716 -1178 
L 716 -306 
Q 1009 -475 1290 -558 
Q 1572 -641 1856 -641 
Q 2406 -641 2662 -400 
Q 2919 -159 2919 353 
L 2919 594 
z
M 2181 2772 
Q 1834 2772 1640 2515 
Q 1447 2259 1447 1791 
Q 1447 1309 1634 1061 
Q 1822 813 2181 813 
Q 2531 813 2725 1069 
Q 2919 1325 2919 1791 
Q 2919 2259 2725 2515 
Q 2531 2772 2181 2772 
z
" transform="scale(0.015625)"/>
     </defs>
     <use xlink:href="#DejaVuSans-Bold-49"/>
     <use xlink:href="#DejaVuSans-Bold-6e" transform="translate(37.207031 0)"/>
     <use xlink:href="#DejaVuSans-Bold-74" transform="translate(108.398438 0)"/>
     <use xlink:href="#DejaVuSans-Bold-65" transform="translate(156.201172 0)"/>
     <use xlink:href="#DejaVuSans-Bold-67" transform="translate(224.023438 0)"/>
     <use xlink:href="#DejaVuSans-Bold-72" transform="translate(295.605469 0)"/>
     <use xlink:href="#DejaVuSans-Bold-61" transform="translate(344.921875 0)"/>
     <use xlink:href="#DejaVuSans-Bold-74" transform="translate(412.402344 0)"/>
     <use xlink:href="#DejaVuSans-Bold-69" transform="translate(460.205078 0)"/>
     <use xlink:href="#DejaVuSans-Bold-6f" transform="translate(494.482422 0)"/>
     <use xlink:href="#DejaVuSans-Bold-6e" transform="translate(563.183594 0)"/>
    </g>
   </g>
   <g id="text_4">
    <!-- $\frac{d}{dx}(c) = 0$ -->
    <g transform="translate(117.44 99.824) scale(0.14 -0.14)">
     <defs>
      <path id="DejaVuSans-Oblique-64" d="M 2675 525 
Q 2444 222 2128 65 
Q 1813 -91 1428 -91 
Q 903 -91 598 267 
Q 294 625 294 1247 
Q 294 1766 478 2236 
Q 663 2706 1013 3078 
Q 1244 3325 1534 3454 
Q 1825 3584 2144 3584 
Q 2481 3584 2739 3421 
Q 2997 3259 3138 2956 
L 3513 4863 
L 4091 4863 
L 3144 0 
L 2566 0 
L 2675 525 
z
M 891 1350 
Q 891 897 1095 644 
Q 1300 391 1663 391 
Q 1931 391 2161 520 
Q 2391 650 2566 903 
Q 2750 1166 2856 1509 
Q 2963 1853 2963 2188 
Q 2963 2622 2758 2865 
Q 2553 3109 2194 3109 
Q 1922 3109 1687 2981 
Q 1453 2853 1288 2613 
Q 1106 2353 998 2009 
Q 891 1666 891 1350 
z
" transform="scale(0.015625)"/>
      <path id="DejaVuSans-Oblique-78" d="M 3841 3500 
L 2234 1784 
L 3219 0 
L 2559 0 
L 1819 1388 
L 531 0 
L -166 0 
L 1556 1844 
L 641 3500 
L 1300 3500 
L 1972 2234 
L 3144 3500 
L 3841 3500 
z
" transform="scale(0.015625)"/>
      <path id="DejaVuSans-28" d="M 1984 4856 
Q 1566 4138 1362 3434 
Q 1159 2731 1159 2009 
Q 1159 1288 1364 580 
Q 1569 -128 1984 -844 
L 1484 -844 
Q 1016 -109 783 600 
Q 550 1309 550 2009 
Q 550 2706 781 3412 
Q 1013 4119 1484 4856 
L 1984 4856 
z
" transform="scale(0.015625)"/>
      <path id="DejaVuSans-Oblique-63" d="M 3431 3366 
L 3316 2797 
Q 3109 2947 2876 3022 
Q 2644 3097 2394 3097 
Q 2119 3097 1870 3000 
Q 1622 2903 1453 2725 
Q 1184 2453 1037 2087 
Q 891 1722 891 1331 
Q 891 859 1127 628 
Q 1363 397 1844 397 
Q 2081 397 2348 469 
Q 2616 541 2906 684 
L 2797 116 
Q 2547 13 2283 -39 
Q 2019 -91 1741 -91 
Q 1044 -91 669 257 
Q 294 606 294 1253 
Q 294 1797 489 2255 
Q 684 2713 1069 3078 
Q 1331 3328 1684 3456 
Q 2038 3584 2456 3584 
Q 2700 3584 2940 3529 
Q 3181 3475 3431 3366 
z
" transform="scale(0.015625)"/>
      <path id="DejaVuSans-29" d="M 513 4856 
L 1013 4856 
Q 1481 4119 1714 3412 
Q 1947 2706 1947 2009 
Q 1947 1309 1714 600 
Q 1481 -109 1013 -844 
L 513 -844 
Q 928 -128 1133 580 
Q 1338 1288 1338 2009 
Q 1338 2731 1133 3434 
Q 928 4138 513 4856 
z
" transform="scale(0.015625)"/>
      <path id="DejaVuSans-3d" d="M 678 2906 
L 4684 2906 
L 4684 2381 
L 678 2381 
L 678 2906 
z
M 678 1631 
L 4684 1631 
L 4684 1100 
L 678 1100 
L 678 1631 
z
" transform="scale(0.015625)"/>
      <path id="DejaVuSans-30" d="M 2034 4250 
Q 1547 4250 1301 3770 
Q 1056 3291 1056 2328 
Q 1056 1369 1301 889 
Q 1547 409 2034 409 
Q 2525 409 2770 889 
Q 3016 1369 3016 2328 
Q 3016 3291 2770 3770 
Q 2525 4250 2034 4250 
z
M 2034 4750 
Q 2819 4750 3233 4129 
Q 3647 3509 3647 2328 
Q 3647 1150 3233 529 
Q 2819 -91 2034 -91 
Q 1250 -91 836 529 
Q 422 1150 422 2328 
Q 422 3509 836 4129 
Q 1250 4750 2034 4750 
z
" transform="scale(0.015625)"/>
     </defs>
     <use xlink:href="#DejaVuSans-Oblique-64" transform="translate(21 44.810938) scale(0.7)"/>
     <use xlink:href="#DejaVuSans-Oblique-64" transform="translate(0 -40.623437) scale(0.7)"/>
     <use xlink:href="#DejaVuSans-Oblique-78" transform="translate(44.433594 -40.623437) scale(0.7)"/>
     <use xlink:href="#DejaVuSans-28" transform="translate(98.359375 0.01875)"/>
     <use xlink:href="#DejaVuSans-Oblique-63" transform="translate(137.373047 0.01875)"/>
     <use xlink:href="#DejaVuSans-29" transform="translate(192.353516 0.01875)"/>
     <use xlink:href="#DejaVuSans-3d" transform="translate(250.849609 0.01875)"/>
     <use xlink:href="#DejaVuSans-30" transform="translate(354.121094 0.01875)"/>
     <path d="M 0 18.815625 
L 0 25.065625 
L 85.859375 25.065625 
L 85.859375 18.815625 
L 0 18.815625 
z
"/>
    </g>
   </g>
   <g id="text_5">
    <!-- $\frac{d}{dx}(x^n) = nx^{n-1}$ -->
    <g transform="translate(96.65 135.3056) scale(0.14 -0.14)">
     <defs>
      <path id="DejaVuSans-Oblique-6e" d="M 3566 2113 
L 3156 0 
L 2578 0 
L 2988 2091 
Q 3016 2238 3031 2350 
Q 3047 2463 3047 2528 
Q 3047 2791 2881 2937 
Q 2716 3084 2419 3084 
Q 1956 3084 1622 2776 
Q 1288 2469 1184 1941 
L 800 0 
L 225 0 
L 903 3500 
L 1478 3500 
L 1363 2950 
Q 1603 3253 1940 3418 
Q 2278 3584 2650 3584 
Q 3113 3584 3367 3334 
Q 3622 3084 3622 2631 
Q 3622 2519 3608 2391 
Q 3594 2263 3566 2113 
z
" transform="scale(0.015625)"/>
      <path id="DejaVuSans-2212" d="M 678 2272 
L 4684 2272 
L 4684 1741 
L 678 1741 
L 678 2272 
z
" transform="scale(0.015625)"/>
      <path id="DejaVuSans-31" d="M 794 531 
L 1825 531 
L 1825 4091 
L 703 3866 
L 703 4441 
L 1819 4666 
L 2450 4666 
L 2450 531 
L 3481 531 
L 3481 0 
L 794 0 
L 794 531 
z
" transform="scale(0.015625)"/>
     </defs>
     <use xlink:href="#DejaVuSans-Oblique-64" transform="translate(21 44.810938) scale(0.7)"/>
     <use xlink:href="#DejaVuSans-Oblique-64" transform="translate(0 -40.623437) scale(0.7)"/>
     <use xlink:href="#DejaVuSans-Oblique-78" transform="translate(44.433594 -40.623437) scale(0.7)"/>
     <use xlink:href="#DejaVuSans-28" transform="translate(98.359375 0.01875)"/>
     <use xlink:href="#DejaVuSans-Oblique-78" transform="translate(137.373047 0.01875)"/>
     <use xlink:href="#DejaVuSans-Oblique-6e" transform="translate(201.01888 38.3) scale(0.7)"/>
     <use xlink:href="#DejaVuSans-29" transform="translate(248.11849 0.01875)"/>
     <use xlink:href="#DejaVuSans-3d" transform="translate(306.614583 0.01875)"/>
     <use xlink:href="#DejaVuSans-Oblique-6e" transform="translate(409.886068 0.01875)"/>
     <use xlink:href="#DejaVuSans-Oblique-78" transform="translate(473.264974 0.01875)"/>
     <use xlink:href="#DejaVuSans-Oblique-6e" transform="translate(536.910807 38.3) scale(0.7)"/>
     <use xlink:href="#DejaVuSans-2212" transform="translate(594.913737 38.3) scale(0.7)"/>
     <use xlink:href="#DejaVuSans-31" transform="translate(667.203776 38.3) scale(0.7)"/>
     <path d="M 0 18.815625 
L 0 25.065625 
L 85.859375 25.065625 
L 85.859375 18.815625 
L 0 18.815625 
z
"/>
    </g>
   </g>
   <g id="text_6">
    <!-- $\frac{d}{dx}(e^x) = e^x$ -->
    <g transform="translate(110.3 170.7872) scale(0.14 -0.14)">
     <defs>
      <path id="DejaVuSans-Oblique-65" d="M 3078 2063 
Q 3088 2113 3092 2166 
Q 3097 2219 3097 2272 
Q 3097 2653 2873 2875 
Q 2650 3097 2266 3097 
Q 1838 3097 1509 2826 
Q 1181 2556 1013 2059 
L 3078 2063 
z
M 3578 1613 
L 903 1613 
Q 884 1494 878 1425 
Q 872 1356 872 1306 
Q 872 872 1139 634 
Q 1406 397 1894 397 
Q 2269 397 2603 481 
Q 2938 566 3225 728 
L 3116 159 
Q 2806 34 2476 -28 
Q 2147 -91 1806 -91 
Q 1078 -91 686 257 
Q 294 606 294 1247 
Q 294 1794 489 2264 
Q 684 2734 1063 3103 
Q 1306 3334 1642 3459 
Q 1978 3584 2356 3584 
Q 2950 3584 3301 3228 
Q 3653 2872 3653 2272 
Q 3653 2128 3634 1964 
Q 3616 1800 3578 1613 
z
" transform="scale(0.015625)"/>
     </defs>
     <use xlink:href="#DejaVuSans-Oblique-64" transform="translate(21 44.810938) scale(0.7)"/>
     <use xlink:href="#DejaVuSans-Oblique-64" transform="translate(0 -40.623437) scale(0.7)"/>
     <use xlink:href="#DejaVuSans-Oblique-78" transform="translate(44.433594 -40.623437) scale(0.7)"/>
     <use xlink:href="#DejaVuSans-28" transform="translate(98.359375 0.01875)"/>
     <use xlink:href="#DejaVuSans-Oblique-65" transform="translate(137.373047 0.01875)"/>
     <use xlink:href="#DejaVuSans-Oblique-78" transform="translate(203.54638 38.3) scale(0.7)"/>
     <use xlink:href="#DejaVuSans-29" transform="translate(247.706536 0.01875)"/>
     <use xlink:href="#DejaVuSans-3d" transform="translate(306.20263 0.01875)"/>
     <use xlink:href="#DejaVuSans-Oblique-65" transform="translate(409.474115 0.01875)"/>
     <use xlink:href="#DejaVuSans-Oblique-78" transform="translate(475.647448 38.3) scale(0.7)"/>
     <path d="M 0 18.815625 
L 0 25.065625 
L 85.859375 25.065625 
L 85.859375 18.815625 
L 0 18.815625 
z
"/>
    </g>
   </g>
   <g id="text_7">
    <!-- $\frac{d}{dx}(\ln x) = \frac{1}{x}$ -->
    <g transform="translate(110.09 206.2688) scale(0.14 -0.14)">
     <defs>
      <path id="DejaVuSans-6c" d="M 603 4863 
L 1178 4863 
L 1178 0 
L 603 0 
L 603 4863 
z
" transform="scale(0.015625)"/>
      <path id="DejaVuSans-6e" d="M 3513 2113 
L 3513 0 
L 2938 0 
L 2938 2094 
Q 2938 2591 2744 2837 
Q 2550 3084 2163 3084 
Q 1697 3084 1428 2787 
Q 1159 2491 1159 1978 
L 1159 0 
L 581 0 
L 581 3500 
L 1159 3500 
L 1159 2956 
Q 1366 3272 1645 3428 
Q 1925 3584 2291 3584 
Q 2894 3584 3203 3211 
Q 3513 2838 3513 2113 
z
" transform="scale(0.015625)"/>
     </defs>
     <use xlink:href="#DejaVuSans-Oblique-64" transform="translate(21 44.810938) scale(0.7)"/>
     <use xlink:href="#DejaVuSans-Oblique-64" transform="translate(0 -40.623437) scale(0.7)"/>
     <use xlink:href="#DejaVuSans-Oblique-78" transform="translate(44.433594 -40.623437) scale(0.7)"/>
     <use xlink:href="#DejaVuSans-28" transform="translate(98.359375 0.01875)"/>
     <use xlink:href="#DejaVuSans-6c" transform="translate(137.373047 0.01875)"/>
     <use xlink:href="#DejaVuSans-6e" transform="translate(165.15625 0.01875)"/>
     <use xlink:href="#DejaVuSans-Oblique-78" transform="translate(244.770833 0.01875)"/>
     <use xlink:href="#DejaVuSans-29" transform="translate(303.95052 0.01875)"/>
     <use xlink:href="#DejaVuSans-3d" transform="translate(362.446614 0.01875)"/>
     <use xlink:href="#DejaVuSans-31" transform="translate(465.718098 43.815625) scale(0.7)"/>
     <use xlink:href="#DejaVuSans-Oblique-78" transform="translate(467.718098 -25.715625) scale(0.7)"/>
     <path d="M 0 18.815625 
L 0 25.065625 
L 85.859375 25.065625 
L 85.859375 18.815625 
L 0 18.815625 
z
"/>
     <path d="M 465.718098 18.815625 
L 465.718098 25.065625 
L 510.254231 25.065625 
L 510.254231 18.815625 
L 465.718098 18.815625 
z
"/>
    </g>
   </g>
   <g id="text_8">
    <!-- $\frac{d}{dx}(\sin x) = \cos x$ -->
    <g transform="translate(93.36 241.7504) scale(0.14 -0.14)">
     <defs>
      <path id="DejaVuSans-73" d="M 2834 3397 
L 2834 2853 
Q 2591 2978 2328 3040 
Q 2066 3103 1784 3103 
Q 1356 3103 1142 2972 
Q 928 2841 928 2578 
Q 928 2378 1081 2264 
Q 1234 2150 1697 2047 
L 1894 2003 
Q 2506 1872 2764 1633 
Q 3022 1394 3022 966 
Q 3022 478 2636 193 
Q 2250 -91 1575 -91 
Q 1294 -91 989 -36 
Q 684 19 347 128 
L 347 722 
Q 666 556 975 473 
Q 1284 391 1588 391 
Q 1994 391 2212 530 
Q 2431 669 2431 922 
Q 2431 1156 2273 1281 
Q 2116 1406 1581 1522 
L 1381 1569 
Q 847 1681 609 1914 
Q 372 2147 372 2553 
Q 372 3047 722 3315 
Q 1072 3584 1716 3584 
Q 2034 3584 2315 3537 
Q 2597 3491 2834 3397 
z
" transform="scale(0.015625)"/>
      <path id="DejaVuSans-69" d="M 603 3500 
L 1178 3500 
L 1178 0 
L 603 0 
L 603 3500 
z
M 603 4863 
L 1178 4863 
L 1178 4134 
L 603 4134 
L 603 4863 
z
" transform="scale(0.015625)"/>
      <path id="DejaVuSans-63" d="M 3122 3366 
L 3122 2828 
Q 2878 2963 2633 3030 
Q 2388 3097 2138 3097 
Q 1578 3097 1268 2742 
Q 959 2388 959 1747 
Q 959 1106 1268 751 
Q 1578 397 2138 397 
Q 2388 397 2633 464 
Q 2878 531 3122 666 
L 3122 134 
Q 2881 22 2623 -34 
Q 2366 -91 2075 -91 
Q 1284 -91 818 406 
Q 353 903 353 1747 
Q 353 2603 823 3093 
Q 1294 3584 2113 3584 
Q 2378 3584 2631 3529 
Q 2884 3475 3122 3366 
z
" transform="scale(0.015625)"/>
      <path id="DejaVuSans-6f" d="M 1959 3097 
Q 1497 3097 1228 2736 
Q 959 2375 959 1747 
Q 959 1119 1226 758 
Q 1494 397 1959 397 
Q 2419 397 2687 759 
Q 2956 1122 2956 1747 
Q 2956 2369 2687 2733 
Q 2419 3097 1959 3097 
z
M 1959 3584 
Q 2709 3584 3137 3096 
Q 3566 2609 3566 1747 
Q 3566 888 3137 398 
Q 2709 -91 1959 -91 
Q 1206 -91 779 398 
Q 353 888 353 1747 
Q 353 2609 779 3096 
Q 1206 3584 1959 3584 
z
" transform="scale(0.015625)"/>
     </defs>
     <use xlink:href="#DejaVuSans-Oblique-64" transform="translate(21 44.810938) scale(0.7)"/>
     <use xlink:href="#DejaVuSans-Oblique-64" transform="translate(0 -40.623437) scale(0.7)"/>
     <use xlink:href="#DejaVuSans-Oblique-78" transform="translate(44.433594 -40.623437) scale(0.7)"/>
     <use xlink:href="#DejaVuSans-28" transform="translate(98.359375 0.01875)"/>
     <use xlink:href="#DejaVuSans-73" transform="translate(137.373047 0.01875)"/>
     <use xlink:href="#DejaVuSans-69" transform="translate(189.472656 0.01875)"/>
     <use xlink:href="#DejaVuSans-6e" transform="translate(217.255859 0.01875)"/>
     <use xlink:href="#DejaVuSans-Oblique-78" transform="translate(296.870442 0.01875)"/>
     <use xlink:href="#DejaVuSans-29" transform="translate(356.050129 0.01875)"/>
     <use xlink:href="#DejaVuSans-3d" transform="translate(414.546223 0.01875)"/>
     <use xlink:href="#DejaVuSans-63" transform="translate(517.817708 0.01875)"/>
     <use xlink:href="#DejaVuSans-6f" transform="translate(572.798176 0.01875)"/>
     <use xlink:href="#DejaVuSans-73" transform="translate(633.979817 0.01875)"/>
     <use xlink:href="#DejaVuSans-Oblique-78" transform="translate(702.315103 0.01875)"/>
     <path d="M 0 18.815625 
L 0 25.065625 
L 85.859375 25.065625 
L 85.859375 18.815625 
L 0 18.815625 
z
"/>
    </g>
   </g>
   <g id="text_9">
    <!-- $\frac{d}{dx}(\cos x) = -\sin x$ -->
    <g transform="translate(87.48 277.232) scale(0.14 -0.14)">
     <use xlink:href="#DejaVuSans-Oblique-64" transform="translate(21 44.810938) scale(0.7)"/>
     <use xlink:href="#DejaVuSans-Oblique-64" transform="translate(0 -40.623437) scale(0.7)"/>
     <use xlink:href="#DejaVuSans-Oblique-78" transform="translate(44.433594 -40.623437) scale(0.7)"/>
     <use xlink:href="#DejaVuSans-28" transform="translate(98.359375 0.01875)"/>
     <use xlink:href="#DejaVuSans-63" transform="translate(137.373047 0.01875)"/>
     <use xlink:href="#DejaVuSans-6f" transform="translate(192.353516 0.01875)"/>
     <use xlink:href="#DejaVuSans-73" transform="translate(253.535156 0.01875)"/>
     <use xlink:href="#DejaVuSans-Oblique-78" transform="translate(321.870442 0.01875)"/>
     <use xlink:href="#DejaVuSans-29" transform="translate(381.050129 0.01875)"/>
     <use xlink:href="#DejaVuSans-3d" transform="translate(439.546223 0.01875)"/>
     <use xlink:href="#DejaVuSans-2212" transform="translate(542.817708 0.01875)"/>
     <use xlink:href="#DejaVuSans-73" transform="translate(626.60677 0.01875)"/>
     <use xlink:href="#DejaVuSans-69" transform="translate(678.706379 0.01875)"/>
     <use xlink:href="#DejaVuSans-6e" transform="translate(706.489583 0.01875)"/>
     <use xlink:href="#DejaVuSans-Oblique-78" transform="translate(786.104165 0.01875)"/>
     <path d="M 0 18.815625 
L 0 25.065625 
L 85.859375 25.065625 
L 85.859375 18.815625 
L 0 18.815625 
z
"/>
    </g>
   </g>
   <g id="text_10">
    <!-- $\frac{d}{dx}(\tan x) = \sec^2 x$ -->
    <g transform="translate(88.53 312.7136) scale(0.14 -0.14)">
     <defs>
      <path id="DejaVuSans-74" d="M 1172 4494 
L 1172 3500 
L 2356 3500 
L 2356 3053 
L 1172 3053 
L 1172 1153 
Q 1172 725 1289 603 
Q 1406 481 1766 481 
L 2356 481 
L 2356 0 
L 1766 0 
Q 1100 0 847 248 
Q 594 497 594 1153 
L 594 3053 
L 172 3053 
L 172 3500 
L 594 3500 
L 594 4494 
L 1172 4494 
z
" transform="scale(0.015625)"/>
      <path id="DejaVuSans-61" d="M 2194 1759 
Q 1497 1759 1228 1600 
Q 959 1441 959 1056 
Q 959 750 1161 570 
Q 1363 391 1709 391 
Q 2188 391 2477 730 
Q 2766 1069 2766 1631 
L 2766 1759 
L 2194 1759 
z
M 3341 1997 
L 3341 0 
L 2766 0 
L 2766 531 
Q 2569 213 2275 61 
Q 1981 -91 1556 -91 
Q 1019 -91 701 211 
Q 384 513 384 1019 
Q 384 1609 779 1909 
Q 1175 2209 1959 2209 
L 2766 2209 
L 2766 2266 
Q 2766 2663 2505 2880 
Q 2244 3097 1772 3097 
Q 1472 3097 1187 3025 
Q 903 2953 641 2809 
L 641 3341 
Q 956 3463 1253 3523 
Q 1550 3584 1831 3584 
Q 2591 3584 2966 3190 
Q 3341 2797 3341 1997 
z
" transform="scale(0.015625)"/>
      <path id="DejaVuSans-65" d="M 3597 1894 
L 3597 1613 
L 953 1613 
Q 991 1019 1311 708 
Q 1631 397 2203 397 
Q 2534 397 2845 478 
Q 3156 559 3463 722 
L 3463 178 
Q 3153 47 2828 -22 
Q 2503 -91 2169 -91 
Q 1331 -91 842 396 
Q 353 884 353 1716 
Q 353 2575 817 3079 
Q 1281 3584 2069 3584 
Q 2775 3584 3186 3129 
Q 3597 2675 3597 1894 
z
M 3022 2063 
Q 3016 2534 2758 2815 
Q 2500 3097 2075 3097 
Q 1594 3097 1305 2825 
Q 1016 2553 972 2059 
L 3022 2063 
z
" transform="scale(0.015625)"/>
      <path id="DejaVuSans-32" d="M 1228 531 
L 3431 531 
L 3431 0 
L 469 0 
L 469 531 
Q 828 903 1448 1529 
Q 2069 2156 2228 2338 
Q 2531 2678 2651 2914 
Q 2772 3150 2772 3378 
Q 2772 3750 2511 3984 
Q 2250 4219 1831 4219 
Q 1534 4219 1204 4116 
Q 875 4013 500 3803 
L 500 4441 
Q 881 4594 1212 4672 
Q 1544 4750 1819 4750 
Q 2544 4750 2975 4387 
Q 3406 4025 3406 3419 
Q 3406 3131 3298 2873 
Q 3191 2616 2906 2266 
Q 2828 2175 2409 1742 
Q 1991 1309 1228 531 
z
" transform="scale(0.015625)"/>
     </defs>
     <use xlink:href="#DejaVuSans-Oblique-64" transform="translate(21 44.810938) scale(0.7)"/>
     <use xlink:href="#DejaVuSans-Oblique-64" transform="translate(0 -40.623437) scale(0.7)"/>
     <use xlink:href="#DejaVuSans-Oblique-78" transform="translate(44.433594 -40.623437) scale(0.7)"/>
     <use xlink:href="#DejaVuSans-28" transform="translate(98.359375 0.01875)"/>
     <use xlink:href="#DejaVuSans-74" transform="translate(137.373047 0.01875)"/>
     <use xlink:href="#DejaVuSans-61" transform="translate(176.582031 0.01875)"/>
     <use xlink:href="#DejaVuSans-6e" transform="translate(237.861328 0.01875)"/>
     <use xlink:href="#DejaVuSans-Oblique-78" transform="translate(317.475911 0.01875)"/>
     <use xlink:href="#DejaVuSans-29" transform="translate(376.655598 0.01875)"/>
     <use xlink:href="#DejaVuSans-3d" transform="translate(435.151692 0.01875)"/>
     <use xlink:href="#DejaVuSans-73" transform="translate(538.423176 0.01875)"/>
     <use xlink:href="#DejaVuSans-65" transform="translate(590.522786 0.01875)"/>
     <use xlink:href="#DejaVuSans-63" transform="translate(652.046223 0.01875)"/>
     <use xlink:href="#DejaVuSans-32" transform="translate(707.983723 38.3) scale(0.7)"/>
     <use xlink:href="#DejaVuSans-Oblique-78" transform="translate(771.489907 0.01875)"/>
     <path d="M 0 18.815625 
L 0 25.065625 
L 85.859375 25.065625 
L 85.859375 18.815625 
L 0 18.815625 
z
"/>
    </g>
   </g>
   <g id="text_11">
    <!-- $\frac{d}{dx}(uv) = u\frac{dv}{dx} + v\frac{du}{dx}$ -->
    <g transform="translate(86.01 348.1952) scale(0.14 -0.14)">
     <defs>
      <path id="DejaVuSans-Oblique-75" d="M 428 1388 
L 838 3500 
L 1416 3500 
L 1006 1409 
Q 975 1256 961 1147 
Q 947 1038 947 966 
Q 947 700 1109 554 
Q 1272 409 1569 409 
Q 2031 409 2368 721 
Q 2706 1034 2809 1563 
L 3194 3500 
L 3769 3500 
L 3091 0 
L 2516 0 
L 2631 550 
Q 2388 244 2052 76 
Q 1716 -91 1338 -91 
Q 878 -91 622 161 
Q 366 413 366 863 
Q 366 956 381 1097 
Q 397 1238 428 1388 
z
" transform="scale(0.015625)"/>
      <path id="DejaVuSans-Oblique-76" d="M 459 3500 
L 1069 3500 
L 1581 525 
L 3256 3500 
L 3866 3500 
L 1875 0 
L 1100 0 
L 459 3500 
z
" transform="scale(0.015625)"/>
      <path id="DejaVuSans-2b" d="M 2944 4013 
L 2944 2272 
L 4684 2272 
L 4684 1741 
L 2944 1741 
L 2944 0 
L 2419 0 
L 2419 1741 
L 678 1741 
L 678 2272 
L 2419 2272 
L 2419 4013 
L 2944 4013 
z
" transform="scale(0.015625)"/>
     </defs>
     <use xlink:href="#DejaVuSans-Oblique-64" transform="translate(21 44.810938) scale(0.7)"/>
     <use xlink:href="#DejaVuSans-Oblique-64" transform="translate(0 -40.623437) scale(0.7)"/>
     <use xlink:href="#DejaVuSans-Oblique-78" transform="translate(44.433594 -40.623437) scale(0.7)"/>
     <use xlink:href="#DejaVuSans-28" transform="translate(98.359375 0.01875)"/>
     <use xlink:href="#DejaVuSans-Oblique-75" transform="translate(137.373047 0.01875)"/>
     <use xlink:href="#DejaVuSans-Oblique-76" transform="translate(200.751953 0.01875)"/>
     <use xlink:href="#DejaVuSans-29" transform="translate(259.931641 0.01875)"/>
     <use xlink:href="#DejaVuSans-3d" transform="translate(318.427734 0.01875)"/>
     <use xlink:href="#DejaVuSans-Oblique-75" transform="translate(421.699219 0.01875)"/>
     <use xlink:href="#DejaVuSans-Oblique-64" transform="translate(485.078125 44.810938) scale(0.7)"/>
     <use xlink:href="#DejaVuSans-Oblique-76" transform="translate(529.511719 44.810938) scale(0.7)"/>
     <use xlink:href="#DejaVuSans-Oblique-64" transform="translate(485.078125 -40.623437) scale(0.7)"/>
     <use xlink:href="#DejaVuSans-Oblique-78" transform="translate(529.511719 -40.623437) scale(0.7)"/>
     <use xlink:href="#DejaVuSans-2b" transform="translate(602.919922 0.01875)"/>
     <use xlink:href="#DejaVuSans-Oblique-76" transform="translate(706.191406 0.01875)"/>
     <use xlink:href="#DejaVuSans-Oblique-64" transform="translate(765.371094 44.810938) scale(0.7)"/>
     <use xlink:href="#DejaVuSans-Oblique-75" transform="translate(809.804688 44.810938) scale(0.7)"/>
     <use xlink:href="#DejaVuSans-Oblique-64" transform="translate(766.371094 -40.623437) scale(0.7)"/>
     <use xlink:href="#DejaVuSans-Oblique-78" transform="translate(810.804688 -40.623437) scale(0.7)"/>
     <path d="M 0 18.815625 
L 0 25.065625 
L 85.859375 25.065625 
L 85.859375 18.815625 
L 0 18.815625 
z
"/>
     <path d="M 485.078125 18.815625 
L 485.078125 25.065625 
L 570.9375 25.065625 
L 570.9375 18.815625 
L 485.078125 18.815625 
z
"/>
     <path d="M 765.371094 18.815625 
L 765.371094 25.065625 
L 854.169922 25.065625 
L 854.169922 18.815625 
L 765.371094 18.815625 
z
"/>
    </g>
   </g>
   <g id="text_12">
    <!-- $\frac{d}{dx}(\frac{u}{v}) = \frac{v\frac{du}{dx} - u\frac{dv}{dx}}{v^2}$ -->
    <g transform="translate(99.1 386.1268) scale(0.14 -0.14)">
     <use xlink:href="#DejaVuSans-Oblique-64" transform="translate(21 45.262188) scale(0.7)"/>
     <use xlink:href="#DejaVuSans-Oblique-64" transform="translate(0 -40.172187) scale(0.7)"/>
     <use xlink:href="#DejaVuSans-Oblique-78" transform="translate(44.433594 -40.172187) scale(0.7)"/>
     <use xlink:href="#DejaVuSans-28" transform="translate(98.359375 0.47)"/>
     <use xlink:href="#DejaVuSans-Oblique-75" transform="translate(137.373047 45.262188) scale(0.7)"/>
     <use xlink:href="#DejaVuSans-Oblique-76" transform="translate(138.373047 -25.264375) scale(0.7)"/>
     <use xlink:href="#DejaVuSans-29" transform="translate(194.238281 0.47)"/>
     <use xlink:href="#DejaVuSans-3d" transform="translate(252.734375 0.47)"/>
     <use xlink:href="#DejaVuSans-Oblique-76" transform="translate(356.005859 73.413125) scale(0.7)"/>
     <use xlink:href="#DejaVuSans-Oblique-64" transform="translate(397.431641 104.767656) scale(0.49)"/>
     <use xlink:href="#DejaVuSans-Oblique-75" transform="translate(428.535156 104.767656) scale(0.49)"/>
     <use xlink:href="#DejaVuSans-Oblique-64" transform="translate(398.431641 44.963594) scale(0.49)"/>
     <use xlink:href="#DejaVuSans-Oblique-78" transform="translate(429.535156 44.963594) scale(0.49)"/>
     <use xlink:href="#DejaVuSans-2212" transform="translate(481.978516 73.413125) scale(0.7)"/>
     <use xlink:href="#DejaVuSans-Oblique-75" transform="translate(554.268555 73.413125) scale(0.7)"/>
     <use xlink:href="#DejaVuSans-Oblique-64" transform="translate(598.633789 104.767656) scale(0.49)"/>
     <use xlink:href="#DejaVuSans-Oblique-76" transform="translate(629.737305 104.767656) scale(0.49)"/>
     <use xlink:href="#DejaVuSans-Oblique-64" transform="translate(598.633789 44.963594) scale(0.49)"/>
     <use xlink:href="#DejaVuSans-Oblique-78" transform="translate(629.737305 44.963594) scale(0.49)"/>
     <use xlink:href="#DejaVuSans-Oblique-76" transform="translate(473.005859 -50.147187) scale(0.7)"/>
     <use xlink:href="#DejaVuSans-32" transform="translate(517.557943 -23.350312) scale(0.49)"/>
     <path d="M 0 19.266875 
L 0 25.516875 
L 85.859375 25.516875 
L 85.859375 19.266875 
L 0 19.266875 
z
"/>
     <path d="M 137.373047 19.266875 
L 137.373047 25.516875 
L 181.738281 25.516875 
L 181.738281 19.266875 
L 137.373047 19.266875 
z
"/>
     <path d="M 397.431641 86.570937 
L 397.431641 90.945937 
L 459.59082 90.945937 
L 459.59082 86.570937 
L 397.431641 86.570937 
z
"/>
     <path d="M 598.633789 86.570937 
L 598.633789 90.945937 
L 658.735352 90.945937 
L 658.735352 86.570937 
L 598.633789 86.570937 
z
"/>
     <path d="M 356.005859 19.266875 
L 356.005859 25.516875 
L 667.485352 25.516875 
L 667.485352 19.266875 
L 356.005859 19.266875 
z
"/>
    </g>
   </g>
   <g id="text_13">
    <!-- $\int 0 \, dx = C$ -->
    <g transform="translate(392.87 101.294) scale(0.14 -0.14)">
     <defs>
      <path id="DejaVuSansDisplay-222b" d="M 2134 5525 
Q 2172 6263 2528 6556 
Q 2884 6850 3218 6850 
Q 3553 6850 3833 6575 
Q 4113 6300 4200 5678 
L 3544 5613 
Q 3469 6188 3219 6188 
Q 2906 6188 2869 5413 
L 2581 -597 
Q 2547 -1334 2187 -1628 
Q 1828 -1922 1497 -1922 
Q 1163 -1922 883 -1647 
Q 603 -1372 516 -750 
L 1172 -684 
Q 1247 -1259 1497 -1259 
Q 1809 -1259 1847 -488 
L 2134 5525 
z
" transform="scale(0.015625)"/>
      <path id="DejaVuSans-Oblique-43" d="M 4447 4306 
L 4319 3641 
Q 4019 3944 3683 4091 
Q 3347 4238 2956 4238 
Q 2422 4238 2017 3981 
Q 1613 3725 1319 3200 
Q 1131 2863 1032 2486 
Q 934 2109 934 1728 
Q 934 1091 1264 756 
Q 1594 422 2222 422 
Q 2656 422 3056 561 
Q 3456 700 3834 978 
L 3688 231 
Q 3316 72 2936 -9 
Q 2556 -91 2175 -91 
Q 1278 -91 773 396 
Q 269 884 269 1753 
Q 269 2309 461 2846 
Q 653 3384 1013 3828 
Q 1394 4300 1883 4525 
Q 2372 4750 3022 4750 
Q 3422 4750 3780 4639 
Q 4138 4528 4447 4306 
z
" transform="scale(0.015625)"/>
     </defs>
     <use xlink:href="#DejaVuSansDisplay-222b" transform="translate(0 0.96875)"/>
     <use xlink:href="#DejaVuSans-30" transform="translate(73.632812 0.96875)"/>
     <use xlink:href="#DejaVuSans-Oblique-64" transform="translate(153.491536 0.96875)"/>
     <use xlink:href="#DejaVuSans-Oblique-78" transform="translate(216.968098 0.96875)"/>
     <use xlink:href="#DejaVuSans-3d" transform="translate(295.630208 0.96875)"/>
     <use xlink:href="#DejaVuSans-Oblique-43" transform="translate(398.901692 0.96875)"/>
    </g>
   </g>
   <g id="text_14">
    <!-- $\int x^n \, dx = \frac{x^{n+1}}{n+1} + C \quad (n \neq -1)$ -->
    <g transform="translate(329.52 136.2156) scale(0.14 -0.14)">
     <defs>
      <path id="DejaVuSans-2260" d="M 678 2906 
L 3091 2906 
L 3891 3891 
L 4281 3572 
L 3738 2906 
L 4684 2906 
L 4684 2381 
L 3309 2381 
L 2700 1631 
L 4684 1631 
L 4684 1100 
L 2266 1100 
L 1459 122 
L 1069 441 
L 1613 1100 
L 678 1100 
L 678 1631 
L 2047 1631 
L 2656 2381 
L 678 2381 
L 678 2906 
z
" transform="scale(0.015625)"/>
     </defs>
     <use xlink:href="#DejaVuSansDisplay-222b" transform="translate(0 0.96875)"/>
     <use xlink:href="#DejaVuSans-Oblique-78" transform="translate(73.632812 0.96875)"/>
     <use xlink:href="#DejaVuSans-Oblique-6e" transform="translate(137.278646 39.25) scale(0.7)"/>
     <use xlink:href="#DejaVuSans-Oblique-64" transform="translate(200.613931 0.96875)"/>
     <use xlink:href="#DejaVuSans-Oblique-78" transform="translate(264.090494 0.96875)"/>
     <use xlink:href="#DejaVuSans-3d" transform="translate(342.752603 0.96875)"/>
     <use xlink:href="#DejaVuSans-Oblique-78" transform="translate(449.024088 44.765625) scale(0.7)"/>
     <use xlink:href="#DejaVuSans-Oblique-6e" transform="translate(493.576171 71.5625) scale(0.49)"/>
     <use xlink:href="#DejaVuSans-2b" transform="translate(534.178222 71.5625) scale(0.49)"/>
     <use xlink:href="#DejaVuSans-31" transform="translate(584.781249 71.5625) scale(0.49)"/>
     <use xlink:href="#DejaVuSans-Oblique-6e" transform="translate(446.024088 -37.51875) scale(0.7)"/>
     <use xlink:href="#DejaVuSans-2b" transform="translate(504.027017 -37.51875) scale(0.7)"/>
     <use xlink:href="#DejaVuSans-31" transform="translate(576.317056 -37.51875) scale(0.7)"/>
     <use xlink:href="#DejaVuSans-2b" transform="translate(652.835611 0.96875)"/>
     <use xlink:href="#DejaVuSans-Oblique-43" transform="translate(756.107096 0.96875)"/>
     <use xlink:href="#DejaVuSans-28" transform="translate(923.343424 0.96875)"/>
     <use xlink:href="#DejaVuSans-Oblique-6e" transform="translate(962.357096 0.96875)"/>
     <use xlink:href="#DejaVuSans-2260" transform="translate(1045.218424 0.96875)"/>
     <use xlink:href="#DejaVuSans-2212" transform="translate(1167.97233 0.96875)"/>
     <use xlink:href="#DejaVuSans-31" transform="translate(1271.243814 0.96875)"/>
     <use xlink:href="#DejaVuSans-29" transform="translate(1334.866861 0.96875)"/>
     <path d="M 446.024088 19.765625 
L 446.024088 26.015625 
L 620.853189 26.015625 
L 620.853189 19.765625 
L 446.024088 19.765625 
z
"/>
    </g>
   </g>
   <g id="text_15">
    <!-- $\int e^x \, dx = e^x + C$ -->
    <g transform="translate(373.27 172.2572) scale(0.14 -0.14)">
     <use xlink:href="#DejaVuSansDisplay-222b" transform="translate(0 0.96875)"/>
     <use xlink:href="#DejaVuSans-Oblique-65" transform="translate(73.632812 0.96875)"/>
     <use xlink:href="#DejaVuSans-Oblique-78" transform="translate(139.806146 39.25) scale(0.7)"/>
     <use xlink:href="#DejaVuSans-Oblique-64" transform="translate(200.201978 0.96875)"/>
     <use xlink:href="#DejaVuSans-Oblique-78" transform="translate(263.678541 0.96875)"/>
     <use xlink:href="#DejaVuSans-3d" transform="translate(342.34065 0.96875)"/>
     <use xlink:href="#DejaVuSans-Oblique-65" transform="translate(445.612135 0.96875)"/>
     <use xlink:href="#DejaVuSans-Oblique-78" transform="translate(511.785468 39.25) scale(0.7)"/>
     <use xlink:href="#DejaVuSans-2b" transform="translate(575.428046 0.96875)"/>
     <use xlink:href="#DejaVuSans-Oblique-43" transform="translate(678.69953 0.96875)"/>
    </g>
   </g>
   <g id="text_16">
    <!-- $\int \frac{1}{x} \, dx = \ln|x| + C$ -->
    <g transform="translate(369.49 207.7388) scale(0.14 -0.14)">
     <defs>
      <path id="DejaVuSans-7c" d="M 1344 4891 
L 1344 -1509 
L 813 -1509 
L 813 4891 
L 1344 4891 
z
" transform="scale(0.015625)"/>
     </defs>
     <use xlink:href="#DejaVuSansDisplay-222b" transform="translate(0 0.96875)"/>
     <use xlink:href="#DejaVuSans-31" transform="translate(73.632812 44.765625) scale(0.7)"/>
     <use xlink:href="#DejaVuSans-Oblique-78" transform="translate(75.632812 -24.765625) scale(0.7)"/>
     <use xlink:href="#DejaVuSans-Oblique-64" transform="translate(146.904622 0.96875)"/>
     <use xlink:href="#DejaVuSans-Oblique-78" transform="translate(210.381184 0.96875)"/>
     <use xlink:href="#DejaVuSans-3d" transform="translate(289.043293 0.96875)"/>
     <use xlink:href="#DejaVuSans-6c" transform="translate(392.314778 0.96875)"/>
     <use xlink:href="#DejaVuSans-6e" transform="translate(420.097981 0.96875)"/>
     <use xlink:href="#DejaVuSans-7c" transform="translate(483.476887 0.96875)"/>
     <use xlink:href="#DejaVuSans-Oblique-78" transform="translate(517.168293 0.96875)"/>
     <use xlink:href="#DejaVuSans-7c" transform="translate(576.347981 0.96875)"/>
     <use xlink:href="#DejaVuSans-2b" transform="translate(629.521809 0.96875)"/>
     <use xlink:href="#DejaVuSans-Oblique-43" transform="translate(732.793293 0.96875)"/>
     <path d="M 73.632812 19.765625 
L 73.632812 26.015625 
L 118.168945 26.015625 
L 118.168945 19.765625 
L 73.632812 19.765625 
z
"/>
    </g>
   </g>
   <g id="text_17">
    <!-- $\int \cos x \, dx = \sin x + C$ -->
    <g transform="translate(356.33 243.2204) scale(0.14 -0.14)">
     <use xlink:href="#DejaVuSansDisplay-222b" transform="translate(0 0.96875)"/>
     <use xlink:href="#DejaVuSans-63" transform="translate(73.632812 0.96875)"/>
     <use xlink:href="#DejaVuSans-6f" transform="translate(128.613281 0.96875)"/>
     <use xlink:href="#DejaVuSans-73" transform="translate(189.794922 0.96875)"/>
     <use xlink:href="#DejaVuSans-Oblique-78" transform="translate(258.130208 0.96875)"/>
     <use xlink:href="#DejaVuSans-Oblique-64" transform="translate(333.545571 0.96875)"/>
     <use xlink:href="#DejaVuSans-Oblique-78" transform="translate(397.022134 0.96875)"/>
     <use xlink:href="#DejaVuSans-3d" transform="translate(475.684243 0.96875)"/>
     <use xlink:href="#DejaVuSans-73" transform="translate(578.955728 0.96875)"/>
     <use xlink:href="#DejaVuSans-69" transform="translate(631.055337 0.96875)"/>
     <use xlink:href="#DejaVuSans-6e" transform="translate(658.83854 0.96875)"/>
     <use xlink:href="#DejaVuSans-Oblique-78" transform="translate(738.453123 0.96875)"/>
     <use xlink:href="#DejaVuSans-2b" transform="translate(817.115232 0.96875)"/>
     <use xlink:href="#DejaVuSans-Oblique-43" transform="translate(920.386716 0.96875)"/>
    </g>
   </g>
   <g id="text_18">
    <!-- $\int \sin x \, dx = -\cos x + C$ -->
    <g transform="translate(350.52 278.702) scale(0.14 -0.14)">
     <use xlink:href="#DejaVuSansDisplay-222b" transform="translate(0 0.96875)"/>
     <use xlink:href="#DejaVuSans-73" transform="translate(73.632812 0.96875)"/>
     <use xlink:href="#DejaVuSans-69" transform="translate(125.732422 0.96875)"/>
     <use xlink:href="#DejaVuSans-6e" transform="translate(153.515625 0.96875)"/>
     <use xlink:href="#DejaVuSans-Oblique-78" transform="translate(233.130208 0.96875)"/>
     <use xlink:href="#DejaVuSans-Oblique-64" transform="translate(308.545571 0.96875)"/>
     <use xlink:href="#DejaVuSans-Oblique-78" transform="translate(372.022134 0.96875)"/>
     <use xlink:href="#DejaVuSans-3d" transform="translate(450.684243 0.96875)"/>
     <use xlink:href="#DejaVuSans-2212" transform="translate(553.955728 0.96875)"/>
     <use xlink:href="#DejaVuSans-63" transform="translate(637.74479 0.96875)"/>
     <use xlink:href="#DejaVuSans-6f" transform="translate(692.725259 0.96875)"/>
     <use xlink:href="#DejaVuSans-73" transform="translate(753.906899 0.96875)"/>
     <use xlink:href="#DejaVuSans-Oblique-78" transform="translate(822.242185 0.96875)"/>
     <use xlink:href="#DejaVuSans-2b" transform="translate(900.904294 0.96875)"/>
     <use xlink:href="#DejaVuSans-Oblique-43" transform="translate(1004.175779 0.96875)"/>
    </g>
   </g>
   <g id="text_19">
    <!-- $\int \sec^2 x \, dx = \tan x + C$ -->
    <g transform="translate(351.5 314.1836) scale(0.14 -0.14)">
     <use xlink:href="#DejaVuSansDisplay-222b" transform="translate(0 0.96875)"/>
     <use xlink:href="#DejaVuSans-73" transform="translate(73.632812 0.96875)"/>
     <use xlink:href="#DejaVuSans-65" transform="translate(125.732422 0.96875)"/>
     <use xlink:href="#DejaVuSans-63" transform="translate(187.255859 0.96875)"/>
     <use xlink:href="#DejaVuSans-32" transform="translate(243.193359 39.25) scale(0.7)"/>
     <use xlink:href="#DejaVuSans-Oblique-78" transform="translate(306.699543 0.96875)"/>
     <use xlink:href="#DejaVuSans-Oblique-64" transform="translate(382.114907 0.96875)"/>
     <use xlink:href="#DejaVuSans-Oblique-78" transform="translate(445.59147 0.96875)"/>
     <use xlink:href="#DejaVuSans-3d" transform="translate(524.253579 0.96875)"/>
     <use xlink:href="#DejaVuSans-74" transform="translate(627.525063 0.96875)"/>
     <use xlink:href="#DejaVuSans-61" transform="translate(666.734048 0.96875)"/>
     <use xlink:href="#DejaVuSans-6e" transform="translate(728.013345 0.96875)"/>
     <use xlink:href="#DejaVuSans-Oblique-78" transform="translate(807.627927 0.96875)"/>
     <use xlink:href="#DejaVuSans-2b" transform="translate(886.290037 0.96875)"/>
     <use xlink:href="#DejaVuSans-Oblique-43" transform="translate(989.561521 0.96875)"/>
    </g>
   </g>
   <g id="text_20">
    <!-- $\int \ln x \, dx = x\ln x - x + C$ -->
    <g transform="translate(348.49 349.6652) scale(0.14 -0.14)">
     <use xlink:href="#DejaVuSansDisplay-222b" transform="translate(0 0.96875)"/>
     <use xlink:href="#DejaVuSans-6c" transform="translate(73.632812 0.96875)"/>
     <use xlink:href="#DejaVuSans-6e" transform="translate(101.416016 0.96875)"/>
     <use xlink:href="#DejaVuSans-Oblique-78" transform="translate(181.030598 0.96875)"/>
     <use xlink:href="#DejaVuSans-Oblique-64" transform="translate(256.445962 0.96875)"/>
     <use xlink:href="#DejaVuSans-Oblique-78" transform="translate(319.922524 0.96875)"/>
     <use xlink:href="#DejaVuSans-3d" transform="translate(398.584634 0.96875)"/>
     <use xlink:href="#DejaVuSans-Oblique-78" transform="translate(501.856118 0.96875)"/>
     <use xlink:href="#DejaVuSans-6c" transform="translate(561.035806 0.96875)"/>
     <use xlink:href="#DejaVuSans-6e" transform="translate(588.819009 0.96875)"/>
     <use xlink:href="#DejaVuSans-Oblique-78" transform="translate(668.433591 0.96875)"/>
     <use xlink:href="#DejaVuSans-2212" transform="translate(747.095701 0.96875)"/>
     <use xlink:href="#DejaVuSans-Oblique-78" transform="translate(850.367185 0.96875)"/>
     <use xlink:href="#DejaVuSans-2b" transform="translate(929.029294 0.96875)"/>
     <use xlink:href="#DejaVuSans-Oblique-43" transform="translate(1032.300779 0.96875)"/>
    </g>
   </g>
   <g id="text_21">
    <!-- $\int u \, dv = uv - \int v \, du$ -->
    <g transform="translate(361.3 385.1468) scale(0.14 -0.14)">
     <use xlink:href="#DejaVuSansDisplay-222b" transform="translate(0 0.96875)"/>
     <use xlink:href="#DejaVuSans-Oblique-75" transform="translate(73.632812 0.96875)"/>
     <use xlink:href="#DejaVuSans-Oblique-64" transform="translate(153.247395 0.96875)"/>
     <use xlink:href="#DejaVuSans-Oblique-76" transform="translate(216.723958 0.96875)"/>
     <use xlink:href="#DejaVuSans-3d" transform="translate(295.386067 0.96875)"/>
     <use xlink:href="#DejaVuSans-Oblique-75" transform="translate(398.657551 0.96875)"/>
     <use xlink:href="#DejaVuSans-Oblique-76" transform="translate(462.036458 0.96875)"/>
     <use xlink:href="#DejaVuSans-2212" transform="translate(540.698567 0.96875)"/>
     <use xlink:href="#DejaVuSansDisplay-222b" transform="translate(643.970051 0.96875)"/>
     <use xlink:href="#DejaVuSans-Oblique-76" transform="translate(717.602864 0.96875)"/>
     <use xlink:href="#DejaVuSans-Oblique-64" transform="translate(793.018228 0.96875)"/>
     <use xlink:href="#DejaVuSans-Oblique-75" transform="translate(856.49479 0.96875)"/>
    </g>
   </g>
  </g>
 </g>
 <defs>
  <clipPath id="p30f10c1b45">
   <rect x="7.2" y="7.2" width="558" height="443.52"/>
  </clipPath>
 </defs>
</svg>
